:version 1.10
:name ASF
:units
  mass 1
  length 1
  angle deg
:documentation
  ASF file generated by Kaydara
:root
  axis xyz
  order  tx ty tz rx ry rz
  position 0 0 0
  orientation 0 0 0
:bonedata
  begin
    id 1
    name RightUpLegDummy
    direction -0.718183 -0.695806 0.00816078
    length 4.904
    axis 0 0 0 xyz
  end
  begin
    id 2
    name RightUpLeg
    direction -0.00334265 -0.999142 0.0412837
    length 17.4976
    axis -0.59612 0.00940841 -0.192072 xyz
    dof rx ry rz
  end
  begin
    id 3
    name RightLeg
    direction 0.000365068 -0.988824 -0.149089
    length 16.5821
    axis 6.58657 0.0604092 -0.318554 xyz
    dof rx ry rz
  end
  begin
    id 4
    name RightFoot
    direction 0.00079069 -0.460991 0.887405
    length 3.77069
    axis 0.000105557 -0.120464 -0.188919 xyz
    dof rx ry rz
  end
  begin
    id 5
    name RightToes
    direction 0.00124768 -0.014065 0.9999
    length 3.85082
    axis 0.00053932 0.542178 -0.142707 xyz
    dof rx ry rz
  end
  begin
    id 6
    name SpineDummy
    direction 8.3039e-015 1 4.58682e-016
    length 4.6813
    axis 0 0 0 xyz
  end
  begin
    id 7
    name Spine
    direction 4.12799e-006 0.999988 0.00494944
    length 10.1015
    axis -0.00149944 0.000129667 -0.000235877 xyz
    dof rx ry rz
  end
  begin
    id 8
    name Spine1
    direction 0 0 0
    length 0
    axis -0.00160567 0.000129431 -0.000308381 xyz
    dof rx ry rz
  end
  begin
    id 9
    name HEadDummy
    direction 5.38513e-006 0.999999 0.00127044
    length 3.43865
    axis -0.00160567 0.000129431 -0.000308381 xyz
  end
  begin
    id 10
    name HEad
    direction -0.0226495 0.980942 0.192974
    length 5.12695
    axis -0.00160642 -0.114462 -0.000307946 xyz
    dof rx ry rz
  end
  begin
    id 11
    name LeftShoulder1Dummy
    direction 0.99889 -0.0402564 -0.0244456
    length 3.5433
    axis -0.00160567 0.000129431 -0.000308381 xyz
  end
  begin
    id 12
    name LeftShoulder1
    direction 0.999464 -0.00142945 0.0326977
    length 4.05031
    axis 0.393425 -0.0796525 -0.0507861 xyz
    dof rx ry rz
  end
  begin
    id 13
    name LeftArm
    direction 0.998564 -0.000899612 -0.053557
    length 10.3537
    axis -22.9476 0.126974 0.960871 xyz
    dof rx ry rz
  end
  begin
    id 14
    name LeftForeArm
    direction 0.998903 0.00865904 0.0460121
    length 8.70632
    axis -9.91856 -0.0656997 -0.178106 xyz
    dof rx ry rz
  end
  begin
    id 15
    name LeftHand
    direction 0.992938 -0.0411687 0.11126
    length 5.32135
    axis -0.00981066 -0.00340928 0.18486 xyz
    dof rx ry rz
  end
  begin
    id 16
    name RightShoulderDummy
    direction -0.998891 -0.0402456 -0.0244411
    length 3.5433
    axis -0.00160567 0.000129431 -0.000308381 xyz
  end
  begin
    id 17
    name RightShoulder
    direction -0.999353 -0.00388479 0.0357579
    length 4.05031
    axis 1.48787 0.256014 0.157284 xyz
    dof rx ry rz
  end
  begin
    id 18
    name RightArm
    direction -0.998583 -0.000660455 -0.0532032
    length 10.3947
    axis -22.4211 -0.109147 -0.943573 xyz
    dof rx ry rz
  end
  begin
    id 19
    name RightForeArm
    direction -0.998898 0.00868588 0.0461311
    length 8.68355
    axis -9.92343 0.0658342 0.178556 xyz
    dof rx ry rz
  end
  begin
    id 20
    name RightHand
    direction -0.992843 -0.0414545 0.112004
    length 5.28593
    axis -0.00982288 0.00332907 -0.185539 xyz
    dof rx ry rz
  end
  begin
    id 21
    name LeftUpLegDummy
    direction 0.718183 -0.695806 0.00816078
    length 4.904
    axis 0 0 0 xyz
  end
  begin
    id 22
    name LeftUpLeg
    direction 0.00445374 -0.999139 0.0412407
    length 17.4976
    axis -0.593655 -0.0138231 0.255969 xyz
    dof rx ry rz
  end
  begin
    id 23
    name LeftLeg
    direction -0.00154847 -0.988829 -0.149046
    length 16.5821
    axis 6.5841 -0.0555156 0.250722 xyz
    dof rx ry rz
  end
  begin
    id 24
    name LeftFoot
    direction -0.00417678 -0.460985 0.887398
    length 3.77069
    axis 5.53694e-005 4.88088e-005 -0.000136194 xyz
    dof rx ry rz
  end
  begin
    id 25
    name LeftToes
    direction 0.00818061 -0.00485256 0.999955
    length 3.85048
    axis 6.41179e-005 4.88477e-005 -0.000136145 xyz
    dof rx ry rz
  end
:hierarchy
  begin
    root RightUpLegDummy SpineDummy LeftUpLegDummy
    RightUpLegDummy RightUpLeg
    RightUpLeg RightLeg
    RightLeg RightFoot
    RightFoot RightToes
    SpineDummy Spine
    Spine Spine1
    Spine1 HEadDummy LeftShoulder1Dummy RightShoulderDummy
    HEadDummy HEad
    LeftShoulder1Dummy LeftShoulder1
    LeftShoulder1 LeftArm
    LeftArm LeftForeArm
    LeftForeArm LeftHand
    RightShoulderDummy RightShoulder
    RightShoulder RightArm
    RightArm RightForeArm
    RightForeArm RightHand
    LeftUpLegDummy LeftUpLeg
    LeftUpLeg LeftLeg
    LeftLeg LeftFoot
    LeftFoot LeftToes
  end

:SAMPLES-PER-SECOND 30
:FULLY-SPECIFIED
:DEGREES
1
root  -0.295208 40.2626 -0.0525513 178.502 -86.7977 -178.526
RightUpLeg  4.95719 -5.92711 -8.55817
RightLeg  -4.01368 -11.2253 0.253173
RightFoot  -1.82593 -0.711392 8.3372
RightToes  6.35927e-011 1.30204e-014 -6.03759e-014
Spine  -0.00662401 0.00403287 0.170722
Spine1  0.00808399 0.00835534 0.0426616
HEad  -0.0243061 -0.0530715 -0.0150332
LeftShoulder1  0.151166 1.8091 -0.530402
LeftArm  -21.3493 -5.85654 2.77549
LeftForeArm  20.6806 2.33125 -6.69583
LeftHand  -0.111472 1.23223 2.96648
RightShoulder  0.0653775 -2.72469 -0.126806
RightArm  -28.4638 23.657 -1.22253
RightForeArm  25.7514 -2.45226 8.81605
RightHand  -0.104651 -1.79422 -2.84183
LeftUpLeg  6.79782 11.4497 15.0133
LeftLeg  -2.03742 21.0946 -1.09165
LeftFoot  -1.96966 0.70945 -8.50144
LeftToes  1.82556e-010 9.56953e-011 7.56925e-011
2
root  -0.315335 40.2626 -0.012193 179.345 -86.7462 -179.309
RightUpLeg  4.95769 -5.89698 -8.61792
RightLeg  -4.13694 -11.2113 0.185512
RightFoot  -1.77467 -0.711386 8.33712
RightToes  6.35927e-011 1.30204e-014 -6.03759e-014
Spine  -0.0192828 -0.0722883 0.0469227
Spine1  -0.142154 -0.0786972 0.0892142
HEad  0.166109 0.404161 0.23644
LeftShoulder1  0.133361 1.95365 -0.158981
LeftArm  -20.9666 -5.67275 2.93564
LeftForeArm  20.8497 2.82729 -6.7742
LeftHand  -0.104955 1.55266 2.97988
RightShoulder  0.0700864 -2.66745 -0.101084
RightArm  -27.7846 23.5372 -1.91578
RightForeArm  25.7959 -3.2286 9.11496
RightHand  -0.102465 -1.97373 -3.13744
LeftUpLeg  6.70122 11.3957 14.8958
LeftLeg  -1.85661 21.1339 -1.02486
LeftFoot  -2.08037 0.704733 -8.53732
LeftToes  1.82556e-010 9.56953e-011 7.56925e-011
3
root  -0.337972 40.2626 0.0305582 179.313 -86.5571 -179.274
RightUpLeg  5.03782 -5.88816 -8.65789
RightLeg  -4.34128 -11.0311 0.170299
RightFoot  -1.72171 -0.702933 8.20063
RightToes  6.35927e-011 1.30204e-014 -6.03759e-014
Spine  0.0855489 -0.0565968 0.0451301
Spine1  -0.360296 -0.0599008 0.0418273
HEad  0.415019 0.511206 0.458716
LeftShoulder1  0.123575 2.02735 0.0956314
LeftArm  -21.5895 -5.55437 3.1758
LeftForeArm  21.9257 3.53409 -6.34006
LeftHand  -0.0769735 1.72828 2.17743
RightShoulder  0.0558712 -2.81941 -0.361468
RightArm  -27.5661 23.461 -2.2715
RightForeArm  25.9187 -4.51388 9.13846
RightHand  -0.0980611 -2.1922 -3.19728
LeftUpLeg  6.73291 11.3643 14.8276
LeftLeg  -1.7214 21.3121 -0.970143
LeftFoot  -2.23341 0.691191 -8.4998
LeftToes  1.82556e-010 9.56953e-011 7.56925e-011
4
root  -0.3573 40.2626 0.0718726 -179.501 -86.2589 179.55
RightUpLeg  4.97493 -5.91485 -8.79397
RightLeg  -4.33709 -10.728 0.0775764
RightFoot  -1.62987 -0.735245 8.50762
RightToes  6.35927e-011 1.30204e-014 -6.03759e-014
Spine  0.114772 0.0158294 0.0570763
Spine1  -0.418125 0.0481172 -0.138168
HEad  0.576085 0.423366 0.667618
LeftShoulder1  0.114058 2.08312 0.489866
LeftArm  -21.8388 -5.20325 3.29886
LeftForeArm  22.3546 3.80705 -6.10999
LeftHand  -0.0899164 1.37911 2.41531
RightShoulder  0.0277522 -3.15703 -0.59559
RightArm  -27.4339 23.3172 -2.27175
RightForeArm  26.1096 -5.64984 9.07008
RightHand  -0.103944 -2.13074 -3.35935
LeftUpLeg  6.92453 11.2651 14.6727
LeftLeg  -1.88468 21.6912 -1.05144
LeftFoot  -2.25204 0.695032 -8.56412
LeftToes  1.82556e-010 9.56953e-011 7.56925e-011
5
root  -0.36731 40.2633 0.111949 -178.69 -85.9294 178.793
RightUpLeg  4.88759 -5.93466 -8.90021
RightLeg  -4.4341 -10.3849 0.0271739
RightFoot  -1.56593 -0.739657 8.5092
RightToes  6.35927e-011 1.30204e-014 -6.03759e-014
Spine  0.0890732 0.0669807 -0.0111573
Spine1  -0.396472 0.101863 -0.143169
HEad  0.620232 0.329648 0.689267
LeftShoulder1  0.0885838 2.39543 0.521494
LeftArm  -21.6542 -5.00843 3.71179
LeftForeArm  22.406 3.89249 -6.16416
LeftHand  -0.0835058 1.73686 2.3987
RightShoulder  0.019531 -3.25422 -0.832295
RightArm  -27.137 23.1387 -2.44229
RightForeArm  25.9819 -6.81461 9.10392
RightHand  -0.0791517 -2.42084 -2.61141
LeftUpLeg  7.03144 11.2272 14.5448
LeftLeg  -1.96799 22.0491 -1.13721
LeftFoot  -2.322 0.69033 -8.56603
LeftToes  1.82556e-010 9.56953e-011 7.56925e-011
6
root  -0.372212 40.2638 0.149265 -176.924 -85.7142 177.107
RightUpLeg  4.77729 -5.98309 -9.07914
RightLeg  -4.50756 -10.14 -0.0343459
RightFoot  -1.49878 -0.752105 8.59985
RightToes  6.35927e-011 1.30204e-014 -6.03759e-014
Spine  0.0178456 0.111541 -0.474965
Spine1  -0.33602 0.0868864 0.243714
HEad  0.607522 0.199748 0.43609
LeftShoulder1  0.076648 2.53081 0.659177
LeftArm  -21.2358 -4.69756 3.95321
LeftForeArm  22.225 4.14027 -6.28007
LeftHand  -0.093276 1.49112 2.57767
RightShoulder  0.0186803 -3.25602 -1.20787
RightArm  -26.639 22.7017 -2.4564
RightForeArm  25.4842 -7.33932 9.26923
RightHand  -0.0702112 -2.61866 -2.40713
LeftUpLeg  7.04916 11.2458 14.3877
LeftLeg  -2.03163 22.254 -1.32509
LeftFoot  -2.38169 0.670258 -8.36332
LeftToes  1.82556e-010 9.56953e-011 7.56925e-011
7
root  -0.372485 40.2641 0.186898 -176.571 -85.5518 176.85
RightUpLeg  4.65268 -6.05872 -9.19862
RightLeg  -4.55279 -9.93874 0.00744629
RightFoot  -1.42812 -0.770244 8.75153
RightToes  6.35927e-011 1.30204e-014 -6.03759e-014
Spine  -0.0979621 0.168565 -0.652692
Spine1  -0.240007 0.121964 0.373636
HEad  0.763932 0.215932 0.500186
LeftShoulder1  0.062405 2.69942 0.796929
LeftArm  -21.1454 -4.66411 4.06267
LeftForeArm  21.9759 4.42743 -6.29755
LeftHand  -0.0815354 1.89225 2.40953
RightShoulder  0.00794292 -3.39916 -1.50805
RightArm  -26.2864 22.1812 -2.33457
RightForeArm  25.0117 -7.40285 9.36642
RightHand  -0.0628206 -2.77005 -2.16595
LeftUpLeg  6.9479 11.238 14.3025
LeftLeg  -1.9183 22.3987 -1.34609
LeftFoot  -2.48029 0.657612 -8.28647
LeftToes  1.82556e-010 9.56953e-011 7.56925e-011
8
root  -0.364141 40.2644 0.215194 -176.033 -85.4997 176.334
RightUpLeg  4.63196 -6.1565 -9.3226
RightLeg  -4.61233 -9.77409 0.0595995
RightFoot  -1.37357 -0.775103 8.75956
RightToes  6.35927e-011 1.30204e-014 -6.03759e-014
Spine  -0.0809367 0.138392 -0.893767
Spine1  -0.226089 0.0576677 0.575966
HEad  0.887881 0.245727 0.33168
LeftShoulder1  0.0516686 2.82957 0.904901
LeftArm  -20.9441 -4.55408 4.10227
LeftForeArm  21.5863 4.80908 -6.33971
LeftHand  -0.0844394 1.97229 2.55691
RightShoulder  -0.00157612 -3.53799 -2.02928
RightArm  -26.1013 21.6942 -1.81858
RightForeArm  25.1759 -7.3882 9.32925
RightHand  -0.0602781 -2.49802 -1.92085
LeftUpLeg  6.89566 11.2565 14.2305
LeftLeg  -1.83717 22.4566 -1.38229
LeftFoot  -2.54321 0.65 -8.24571
LeftToes  1.82556e-010 9.56953e-011 7.56925e-011
9
root  -0.354454 40.2647 0.238991 -175.515 -85.4353 175.836
RightUpLeg  4.6043 -6.23876 -9.42484
RightLeg  -4.66862 -9.63619 0.0978483
RightFoot  -1.37175 -0.770645 8.66106
RightToes  6.35927e-011 1.30204e-014 -6.03759e-014
Spine  -0.00934546 0.137673 -1.05911
Spine1  -0.239702 0.0437716 0.662803
HEad  0.9515 0.296169 0.179757
LeftShoulder1  0.0518382 2.81374 1.06587
LeftArm  -21.3696 -4.25706 3.9739
LeftForeArm  22.1444 5.00052 -6.02854
LeftHand  -0.0829239 1.91659 2.47553
RightShoulder  -0.0161289 -3.75906 -2.15136
RightArm  -25.9264 21.345 -1.57936
RightForeArm  25.3411 -7.38632 9.32687
RightHand  -0.0590169 -2.40822 -1.82628
LeftUpLeg  6.88279 11.2151 14.1324
LeftLeg  -1.85131 22.5681 -1.40254
LeftFoot  -2.60136 0.645266 -8.20602
LeftToes  1.82556e-010 9.56953e-011 7.56925e-011
